<svg xmlns="http://www.w3.org/2000/svg" width="24" height="24" viewBox="0 0 24 24" fill="none" stroke="#111827" stroke-width="2" stroke-linecap="round" stroke-linejoin="round">
  <path d="M11.525 2.295a.53.53 0 0 1 .95 0l2.31 4.679a2.12 2.12 0 0 0 1.595 1.16l5.166.751a.53.53 0 0 1 .294.904l-3.738 3.644a2.12 2.12 0 0 0-.611 1.878l.882 5.14a.53.53 0 0 1-.769.559l-4.62-2.429a2.12 2.12 0 0 0-1.968 0l-4.62 2.429a.53.53 0 0 1-.769-.559l.882-5.14a2.12 2.12 0 0 0-.611-1.878L2.16 9.789a.53.53 0 0 1 .294-.904l5.166-.751a2.12 2.12 0 0 0 1.595-1.16z"/>
</svg>
